<mxfile host="app.diagrams.net" agent="Mozilla/5.0 (Macintosh; Intel Mac OS X 10_15_7) AppleWebKit/537.36 (KHTML, like Gecko) Chrome/134.0.0.0 Safari/537.36" version="26.1.0">
  <diagram id="jm_a8Gu2qBRybTesP8lv" name="第 1 页">
    <mxGraphModel dx="1912" dy="1015" grid="1" gridSize="10" guides="1" tooltips="1" connect="1" arrows="1" fold="1" page="1" pageScale="1" pageWidth="827" pageHeight="1169" math="1" shadow="0">
      <root>
        <mxCell id="0" />
        <mxCell id="1" parent="0" />
        <mxCell id="a4rJh2n7v3qjULqyz8CN-7" value="" style="rounded=0;whiteSpace=wrap;html=1;strokeWidth=2;fillColor=none;" vertex="1" parent="1">
          <mxGeometry x="60" y="280" width="940" height="160" as="geometry" />
        </mxCell>
        <mxCell id="2" value="" style="rounded=0;whiteSpace=wrap;html=1;strokeWidth=2;fillColor=none;" parent="1" vertex="1">
          <mxGeometry x="70" y="290" width="200" height="60" as="geometry" />
        </mxCell>
        <mxCell id="a4rJh2n7v3qjULqyz8CN-27" style="edgeStyle=orthogonalEdgeStyle;rounded=0;orthogonalLoop=1;jettySize=auto;html=1;exitX=0.5;exitY=1;exitDx=0;exitDy=0;strokeWidth=2;strokeColor=#999999;startArrow=classic;startFill=1;" edge="1" parent="1" source="a4rJh2n7v3qjULqyz8CN-2" target="a4rJh2n7v3qjULqyz8CN-15">
          <mxGeometry relative="1" as="geometry" />
        </mxCell>
        <mxCell id="a4rJh2n7v3qjULqyz8CN-32" style="edgeStyle=orthogonalEdgeStyle;rounded=0;orthogonalLoop=1;jettySize=auto;html=1;exitX=0;exitY=0.5;exitDx=0;exitDy=0;entryX=1;entryY=0.5;entryDx=0;entryDy=0;strokeWidth=2;" edge="1" parent="1" source="a4rJh2n7v3qjULqyz8CN-2" target="2">
          <mxGeometry relative="1" as="geometry" />
        </mxCell>
        <mxCell id="a4rJh2n7v3qjULqyz8CN-2" value="&lt;font face=&quot;Times New Roman&quot; style=&quot;font-size: 24px;&quot;&gt;Task&lt;/font&gt;&lt;div&gt;&lt;font style=&quot;font-size: 24px;&quot; face=&quot;宋体&quot;&gt;\(ipc\_call\)&lt;/font&gt;&lt;/div&gt;" style="rounded=1;whiteSpace=wrap;html=1;strokeWidth=2;fillColor=none;align=center;" vertex="1" parent="1">
          <mxGeometry x="445" y="290" width="140" height="60" as="geometry" />
        </mxCell>
        <mxCell id="a4rJh2n7v3qjULqyz8CN-30" style="edgeStyle=orthogonalEdgeStyle;rounded=0;orthogonalLoop=1;jettySize=auto;html=1;exitX=0;exitY=0.5;exitDx=0;exitDy=0;entryX=1;entryY=0.5;entryDx=0;entryDy=0;strokeWidth=2;" edge="1" parent="1" source="a4rJh2n7v3qjULqyz8CN-3" target="a4rJh2n7v3qjULqyz8CN-2">
          <mxGeometry relative="1" as="geometry" />
        </mxCell>
        <mxCell id="a4rJh2n7v3qjULqyz8CN-55" value="&lt;font face=&quot;宋体&quot; style=&quot;font-size: 24px;&quot;&gt;唤醒&lt;/font&gt;" style="edgeLabel;html=1;align=center;verticalAlign=middle;resizable=0;points=[];labelBackgroundColor=none;" vertex="1" connectable="0" parent="a4rJh2n7v3qjULqyz8CN-30">
          <mxGeometry x="-0.446" y="1" relative="1" as="geometry">
            <mxPoint x="-16" y="14" as="offset" />
          </mxGeometry>
        </mxCell>
        <mxCell id="a4rJh2n7v3qjULqyz8CN-3" value="&lt;font face=&quot;Times New Roman&quot; style=&quot;font-size: 24px;&quot;&gt;Task&lt;/font&gt;&lt;div&gt;&lt;font style=&quot;font-size: 24px;&quot; face=&quot;宋体&quot;&gt;\(dispatcher\)&lt;/font&gt;&lt;/div&gt;" style="rounded=1;whiteSpace=wrap;html=1;strokeWidth=2;fillColor=none;align=center;" vertex="1" parent="1">
          <mxGeometry x="670" y="290" width="140" height="60" as="geometry" />
        </mxCell>
        <mxCell id="a4rJh2n7v3qjULqyz8CN-4" value="&lt;span style=&quot;font-family: 宋体; font-size: 24px;&quot;&gt;\(runtime\)&lt;/span&gt;" style="text;html=1;align=center;verticalAlign=middle;whiteSpace=wrap;rounded=0;" vertex="1" parent="1">
          <mxGeometry x="140" y="305" width="60" height="30" as="geometry" />
        </mxCell>
        <mxCell id="a4rJh2n7v3qjULqyz8CN-29" style="edgeStyle=orthogonalEdgeStyle;rounded=0;orthogonalLoop=1;jettySize=auto;html=1;exitX=0;exitY=0.5;exitDx=0;exitDy=0;entryX=1;entryY=0.5;entryDx=0;entryDy=0;strokeWidth=2;dashed=1;" edge="1" parent="1" source="a4rJh2n7v3qjULqyz8CN-6" target="a4rJh2n7v3qjULqyz8CN-3">
          <mxGeometry relative="1" as="geometry" />
        </mxCell>
        <mxCell id="a4rJh2n7v3qjULqyz8CN-42" value="&lt;font face=&quot;宋体&quot; style=&quot;font-size: 24px;&quot;&gt;唤醒&lt;/font&gt;" style="edgeLabel;html=1;align=center;verticalAlign=middle;resizable=0;points=[];labelBackgroundColor=none;" vertex="1" connectable="0" parent="a4rJh2n7v3qjULqyz8CN-29">
          <mxGeometry x="-0.2844" y="3" relative="1" as="geometry">
            <mxPoint x="-11" y="12" as="offset" />
          </mxGeometry>
        </mxCell>
        <mxCell id="a4rJh2n7v3qjULqyz8CN-6" value="&lt;div&gt;&lt;font style=&quot;font-size: 24px;&quot; face=&quot;宋体&quot;&gt;中断处理&lt;/font&gt;&lt;/div&gt;" style="rounded=0;whiteSpace=wrap;html=1;strokeWidth=2;fillColor=none;dashed=1;" vertex="1" parent="1">
          <mxGeometry x="890" y="290" width="100" height="60" as="geometry" />
        </mxCell>
        <mxCell id="a4rJh2n7v3qjULqyz8CN-8" value="" style="rounded=0;whiteSpace=wrap;html=1;strokeWidth=2;fillColor=none;" vertex="1" parent="1">
          <mxGeometry x="60" y="480" width="940" height="180" as="geometry" />
        </mxCell>
        <mxCell id="a4rJh2n7v3qjULqyz8CN-9" value="" style="rounded=0;whiteSpace=wrap;html=1;strokeWidth=2;fillColor=none;" vertex="1" parent="1">
          <mxGeometry x="790" y="590" width="200" height="60" as="geometry" />
        </mxCell>
        <mxCell id="a4rJh2n7v3qjULqyz8CN-26" style="edgeStyle=orthogonalEdgeStyle;rounded=0;orthogonalLoop=1;jettySize=auto;html=1;exitX=1;exitY=0.5;exitDx=0;exitDy=0;entryX=0;entryY=0.5;entryDx=0;entryDy=0;strokeWidth=2;" edge="1" parent="1" source="a4rJh2n7v3qjULqyz8CN-11" target="a4rJh2n7v3qjULqyz8CN-25">
          <mxGeometry relative="1" as="geometry" />
        </mxCell>
        <mxCell id="a4rJh2n7v3qjULqyz8CN-54" value="&lt;font face=&quot;宋体&quot; style=&quot;font-size: 24px;&quot;&gt;唤醒&lt;/font&gt;" style="edgeLabel;html=1;align=center;verticalAlign=middle;resizable=0;points=[];labelBackgroundColor=none;" vertex="1" connectable="0" parent="a4rJh2n7v3qjULqyz8CN-26">
          <mxGeometry x="0.1273" y="2" relative="1" as="geometry">
            <mxPoint x="-6" y="-13" as="offset" />
          </mxGeometry>
        </mxCell>
        <mxCell id="a4rJh2n7v3qjULqyz8CN-11" value="&lt;font face=&quot;Times New Roman&quot; style=&quot;font-size: 24px;&quot;&gt;Task&lt;/font&gt;&lt;div&gt;&lt;font style=&quot;font-size: 24px;&quot; face=&quot;宋体&quot;&gt;\(dispatcher\)&lt;/font&gt;&lt;/div&gt;" style="rounded=1;whiteSpace=wrap;html=1;strokeWidth=2;fillColor=none;align=center;" vertex="1" parent="1">
          <mxGeometry x="240" y="590" width="140" height="60" as="geometry" />
        </mxCell>
        <mxCell id="a4rJh2n7v3qjULqyz8CN-12" value="&lt;span style=&quot;font-family: 宋体; font-size: 24px;&quot;&gt;\(runtime\)&lt;/span&gt;" style="text;html=1;align=center;verticalAlign=middle;whiteSpace=wrap;rounded=0;" vertex="1" parent="1">
          <mxGeometry x="860" y="605" width="60" height="30" as="geometry" />
        </mxCell>
        <mxCell id="a4rJh2n7v3qjULqyz8CN-22" style="edgeStyle=orthogonalEdgeStyle;rounded=0;orthogonalLoop=1;jettySize=auto;html=1;exitX=1;exitY=0.5;exitDx=0;exitDy=0;entryX=0;entryY=0.5;entryDx=0;entryDy=0;strokeWidth=2;dashed=1;" edge="1" parent="1" source="a4rJh2n7v3qjULqyz8CN-14" target="a4rJh2n7v3qjULqyz8CN-11">
          <mxGeometry relative="1" as="geometry" />
        </mxCell>
        <mxCell id="a4rJh2n7v3qjULqyz8CN-41" value="&lt;font face=&quot;宋体&quot; style=&quot;font-size: 24px;&quot;&gt;唤醒&lt;/font&gt;" style="edgeLabel;html=1;align=center;verticalAlign=middle;resizable=0;points=[];labelBackgroundColor=none;" vertex="1" connectable="0" parent="a4rJh2n7v3qjULqyz8CN-22">
          <mxGeometry x="0.0031" y="-1" relative="1" as="geometry">
            <mxPoint y="-16" as="offset" />
          </mxGeometry>
        </mxCell>
        <mxCell id="a4rJh2n7v3qjULqyz8CN-14" value="&lt;div&gt;&lt;font face=&quot;宋体&quot;&gt;&lt;span style=&quot;font-size: 24px;&quot;&gt;中断处理&lt;/span&gt;&lt;/font&gt;&lt;/div&gt;" style="rounded=0;whiteSpace=wrap;html=1;strokeWidth=2;fillColor=none;dashed=1;" vertex="1" parent="1">
          <mxGeometry x="70" y="590" width="100" height="60" as="geometry" />
        </mxCell>
        <mxCell id="a4rJh2n7v3qjULqyz8CN-17" value="&lt;span style=&quot;font-family: 宋体; font-size: 24px;&quot;&gt;\(Client\)&lt;/span&gt;" style="text;html=1;align=center;verticalAlign=middle;whiteSpace=wrap;rounded=0;" vertex="1" parent="1">
          <mxGeometry x="1020" y="305" width="60" height="30" as="geometry" />
        </mxCell>
        <mxCell id="a4rJh2n7v3qjULqyz8CN-18" value="&lt;span style=&quot;font-family: 宋体; font-size: 24px;&quot;&gt;\(Server\)&lt;/span&gt;" style="text;html=1;align=center;verticalAlign=middle;whiteSpace=wrap;rounded=0;" vertex="1" parent="1">
          <mxGeometry x="1020" y="585" width="60" height="30" as="geometry" />
        </mxCell>
        <mxCell id="a4rJh2n7v3qjULqyz8CN-19" value="&lt;font face=&quot;宋体&quot;&gt;&lt;span style=&quot;font-size: 24px;&quot;&gt;TAIC&lt;/span&gt;&lt;/font&gt;" style="text;html=1;align=center;verticalAlign=middle;whiteSpace=wrap;rounded=0;" vertex="1" parent="1">
          <mxGeometry x="1020" y="445" width="60" height="30" as="geometry" />
        </mxCell>
        <mxCell id="a4rJh2n7v3qjULqyz8CN-33" style="edgeStyle=orthogonalEdgeStyle;rounded=0;orthogonalLoop=1;jettySize=auto;html=1;exitX=1;exitY=0.5;exitDx=0;exitDy=0;entryX=0;entryY=0.5;entryDx=0;entryDy=0;strokeWidth=2;" edge="1" parent="1" source="a4rJh2n7v3qjULqyz8CN-25" target="a4rJh2n7v3qjULqyz8CN-9">
          <mxGeometry relative="1" as="geometry" />
        </mxCell>
        <mxCell id="a4rJh2n7v3qjULqyz8CN-25" value="&lt;font face=&quot;Times New Roman&quot; style=&quot;font-size: 24px;&quot;&gt;Task&lt;/font&gt;&lt;div&gt;&lt;font style=&quot;font-size: 24px;&quot; face=&quot;宋体&quot;&gt;\(ipc\_reply\)&lt;/font&gt;&lt;/div&gt;" style="rounded=1;whiteSpace=wrap;html=1;strokeWidth=2;fillColor=none;align=center;" vertex="1" parent="1">
          <mxGeometry x="445" y="590" width="140" height="60" as="geometry" />
        </mxCell>
        <mxCell id="a4rJh2n7v3qjULqyz8CN-28" style="edgeStyle=orthogonalEdgeStyle;rounded=0;orthogonalLoop=1;jettySize=auto;html=1;exitX=0.5;exitY=0;exitDx=0;exitDy=0;entryX=0.5;entryY=0.88;entryDx=0;entryDy=0;entryPerimeter=0;strokeWidth=2;strokeColor=#999999;startArrow=classic;startFill=1;" edge="1" parent="1" source="a4rJh2n7v3qjULqyz8CN-25" target="a4rJh2n7v3qjULqyz8CN-15">
          <mxGeometry relative="1" as="geometry" />
        </mxCell>
        <mxCell id="a4rJh2n7v3qjULqyz8CN-16" value="" style="rounded=0;whiteSpace=wrap;html=1;strokeWidth=2;fillColor=#f5f5f5;fontColor=#333333;strokeColor=#666666;" vertex="1" parent="1">
          <mxGeometry x="80" y="420" width="900" height="80" as="geometry" />
        </mxCell>
        <mxCell id="a4rJh2n7v3qjULqyz8CN-15" value="&lt;font style=&quot;font-size: 24px;&quot; face=&quot;宋体&quot;&gt;共享缓冲区&lt;/font&gt;" style="strokeWidth=2;html=1;shape=mxgraph.flowchart.multi-document;whiteSpace=wrap;" vertex="1" parent="1">
          <mxGeometry x="400" y="410" width="230" height="110" as="geometry" />
        </mxCell>
        <mxCell id="a4rJh2n7v3qjULqyz8CN-20" value="" style="endArrow=classic;html=1;rounded=0;exitX=0.25;exitY=1;exitDx=0;exitDy=0;entryX=0.5;entryY=0;entryDx=0;entryDy=0;strokeWidth=2;dashed=1;" edge="1" parent="1" source="2" target="a4rJh2n7v3qjULqyz8CN-14">
          <mxGeometry width="50" height="50" relative="1" as="geometry">
            <mxPoint x="490" y="510" as="sourcePoint" />
            <mxPoint x="540" y="460" as="targetPoint" />
          </mxGeometry>
        </mxCell>
        <mxCell id="a4rJh2n7v3qjULqyz8CN-34" value="&lt;font style=&quot;font-size: 24px;&quot; face=&quot;宋体&quot;&gt;发送&lt;/font&gt;&lt;div&gt;&lt;font style=&quot;font-size: 24px;&quot; face=&quot;宋体&quot;&gt;中断&lt;/font&gt;&lt;/div&gt;" style="edgeLabel;html=1;align=center;verticalAlign=middle;resizable=0;points=[];labelBackgroundColor=default;" vertex="1" connectable="0" parent="a4rJh2n7v3qjULqyz8CN-20">
          <mxGeometry x="-0.1103" y="4" relative="1" as="geometry">
            <mxPoint x="-14" y="3" as="offset" />
          </mxGeometry>
        </mxCell>
        <mxCell id="a4rJh2n7v3qjULqyz8CN-21" value="" style="endArrow=none;html=1;rounded=0;exitX=0.5;exitY=1;exitDx=0;exitDy=0;strokeWidth=2;startArrow=classic;startFill=1;dashed=1;entryX=0.75;entryY=0;entryDx=0;entryDy=0;" edge="1" parent="1" source="a4rJh2n7v3qjULqyz8CN-6" target="a4rJh2n7v3qjULqyz8CN-9">
          <mxGeometry width="50" height="50" relative="1" as="geometry">
            <mxPoint x="909.5" y="340" as="sourcePoint" />
            <mxPoint x="940" y="560" as="targetPoint" />
          </mxGeometry>
        </mxCell>
        <mxCell id="a4rJh2n7v3qjULqyz8CN-39" value="&lt;font style=&quot;font-size: 24px;&quot; face=&quot;宋体&quot;&gt;发送&lt;/font&gt;&lt;div style=&quot;&quot;&gt;&lt;font style=&quot;font-size: 24px;&quot; face=&quot;宋体&quot;&gt;中断&lt;/font&gt;&lt;/div&gt;" style="edgeLabel;html=1;align=center;verticalAlign=middle;resizable=0;points=[];labelBackgroundColor=default;" vertex="1" connectable="0" parent="a4rJh2n7v3qjULqyz8CN-21">
          <mxGeometry x="-0.2109" relative="1" as="geometry">
            <mxPoint x="10" y="16" as="offset" />
          </mxGeometry>
        </mxCell>
        <mxCell id="a4rJh2n7v3qjULqyz8CN-43" style="rounded=0;orthogonalLoop=1;jettySize=auto;html=1;strokeWidth=2;strokeColor=#999999;startArrow=classic;startFill=1;" edge="1" parent="1">
          <mxGeometry relative="1" as="geometry">
            <mxPoint x="300" y="709.55" as="sourcePoint" />
            <mxPoint x="220" y="709.55" as="targetPoint" />
          </mxGeometry>
        </mxCell>
        <mxCell id="a4rJh2n7v3qjULqyz8CN-46" style="edgeStyle=orthogonalEdgeStyle;rounded=0;orthogonalLoop=1;jettySize=auto;html=1;strokeWidth=2;fillColor=#e51400;strokeColor=#FF0000;exitX=0.25;exitY=0;exitDx=0;exitDy=0;" edge="1" parent="1" source="a4rJh2n7v3qjULqyz8CN-9">
          <mxGeometry relative="1" as="geometry">
            <mxPoint x="810" y="590" as="sourcePoint" />
            <mxPoint x="560" y="350" as="targetPoint" />
            <Array as="points">
              <mxPoint x="840" y="400" />
              <mxPoint x="560" y="400" />
            </Array>
          </mxGeometry>
        </mxCell>
        <mxCell id="a4rJh2n7v3qjULqyz8CN-47" style="edgeStyle=orthogonalEdgeStyle;rounded=0;orthogonalLoop=1;jettySize=auto;html=1;strokeWidth=2;fillColor=#d5e8d4;strokeColor=#FF0000;exitX=0.75;exitY=1;exitDx=0;exitDy=0;" edge="1" parent="1" source="2">
          <mxGeometry relative="1" as="geometry">
            <mxPoint x="250" y="350" as="sourcePoint" />
            <mxPoint x="460" y="590" as="targetPoint" />
            <Array as="points">
              <mxPoint x="220" y="540" />
              <mxPoint x="460" y="540" />
            </Array>
          </mxGeometry>
        </mxCell>
        <mxCell id="a4rJh2n7v3qjULqyz8CN-35" style="edgeStyle=orthogonalEdgeStyle;rounded=0;orthogonalLoop=1;jettySize=auto;html=1;entryX=0.5;entryY=0;entryDx=0;entryDy=0;strokeWidth=2;exitX=0.5;exitY=1;exitDx=0;exitDy=0;" edge="1" parent="1" source="2" target="a4rJh2n7v3qjULqyz8CN-11">
          <mxGeometry relative="1" as="geometry">
            <mxPoint x="190" y="350" as="sourcePoint" />
            <Array as="points">
              <mxPoint x="170" y="560" />
              <mxPoint x="310" y="560" />
            </Array>
          </mxGeometry>
        </mxCell>
        <mxCell id="a4rJh2n7v3qjULqyz8CN-37" value="&lt;font style=&quot;font-size: 24px;&quot; face=&quot;Times New Roman&quot;&gt;TAIC&lt;/font&gt;&lt;span style=&quot;font-size: 24px; font-family: 宋体; background-color: light-dark(#ffffff, var(--ge-dark-color, #121212)); color: light-dark(rgb(0, 0, 0), rgb(255, 255, 255));&quot;&gt;通信&lt;/span&gt;" style="edgeLabel;html=1;align=center;verticalAlign=middle;resizable=0;points=[];labelBackgroundColor=default;" vertex="1" connectable="0" parent="a4rJh2n7v3qjULqyz8CN-35">
          <mxGeometry x="-0.4186" y="1" relative="1" as="geometry">
            <mxPoint x="39" y="-3" as="offset" />
          </mxGeometry>
        </mxCell>
        <mxCell id="a4rJh2n7v3qjULqyz8CN-36" style="edgeStyle=orthogonalEdgeStyle;rounded=0;orthogonalLoop=1;jettySize=auto;html=1;exitX=0.5;exitY=0;exitDx=0;exitDy=0;entryX=0.5;entryY=1;entryDx=0;entryDy=0;strokeWidth=2;" edge="1" parent="1" source="a4rJh2n7v3qjULqyz8CN-9" target="a4rJh2n7v3qjULqyz8CN-3">
          <mxGeometry relative="1" as="geometry">
            <Array as="points">
              <mxPoint x="890" y="380" />
              <mxPoint x="740" y="380" />
            </Array>
          </mxGeometry>
        </mxCell>
        <mxCell id="a4rJh2n7v3qjULqyz8CN-40" value="&lt;font style=&quot;background-color: rgb(251, 251, 251); font-size: 24px;&quot; face=&quot;Times New Roman&quot;&gt;TAIC&lt;/font&gt;&lt;span style=&quot;font-size: 24px; font-family: 宋体; background-color: light-dark(rgb(251, 251, 251), rgb(21, 21, 21)); color: light-dark(rgb(0, 0, 0), rgb(255, 255, 255));&quot;&gt;通信&lt;/span&gt;" style="edgeLabel;html=1;align=center;verticalAlign=middle;resizable=0;points=[];" vertex="1" connectable="0" parent="a4rJh2n7v3qjULqyz8CN-36">
          <mxGeometry x="-0.3058" y="1" relative="1" as="geometry">
            <mxPoint x="-39" y="5" as="offset" />
          </mxGeometry>
        </mxCell>
        <mxCell id="a4rJh2n7v3qjULqyz8CN-51" value="" style="group" vertex="1" connectable="0" parent="1">
          <mxGeometry x="630" y="700" width="100" height="20" as="geometry" />
        </mxCell>
        <mxCell id="a4rJh2n7v3qjULqyz8CN-48" style="rounded=0;orthogonalLoop=1;jettySize=auto;html=1;strokeWidth=2;strokeColor=#000000;startArrow=none;startFill=0;" edge="1" parent="a4rJh2n7v3qjULqyz8CN-51">
          <mxGeometry relative="1" as="geometry">
            <mxPoint x="80" as="sourcePoint" />
            <mxPoint as="targetPoint" />
          </mxGeometry>
        </mxCell>
        <mxCell id="a4rJh2n7v3qjULqyz8CN-49" style="rounded=0;orthogonalLoop=1;jettySize=auto;html=1;strokeWidth=2;strokeColor=#000000;startArrow=none;startFill=0;dashed=1;" edge="1" parent="a4rJh2n7v3qjULqyz8CN-51">
          <mxGeometry relative="1" as="geometry">
            <mxPoint x="90" y="10" as="sourcePoint" />
            <mxPoint x="10" y="10" as="targetPoint" />
          </mxGeometry>
        </mxCell>
        <mxCell id="a4rJh2n7v3qjULqyz8CN-50" style="rounded=0;orthogonalLoop=1;jettySize=auto;html=1;strokeWidth=2;strokeColor=#FF0000;startArrow=none;startFill=0;" edge="1" parent="a4rJh2n7v3qjULqyz8CN-51">
          <mxGeometry relative="1" as="geometry">
            <mxPoint x="100" y="20" as="sourcePoint" />
            <mxPoint x="20" y="20" as="targetPoint" />
          </mxGeometry>
        </mxCell>
        <mxCell id="a4rJh2n7v3qjULqyz8CN-52" value="&lt;font style=&quot;font-size: 24px;&quot; face=&quot;宋体&quot;&gt;数据传输&lt;/font&gt;" style="text;html=1;align=center;verticalAlign=middle;whiteSpace=wrap;rounded=0;" vertex="1" parent="1">
          <mxGeometry x="320" y="695" width="100" height="30" as="geometry" />
        </mxCell>
        <mxCell id="a4rJh2n7v3qjULqyz8CN-53" value="&lt;font style=&quot;font-size: 24px;&quot; face=&quot;宋体&quot;&gt;任务通信&lt;/font&gt;" style="text;html=1;align=center;verticalAlign=middle;whiteSpace=wrap;rounded=0;" vertex="1" parent="1">
          <mxGeometry x="750" y="695" width="100" height="30" as="geometry" />
        </mxCell>
      </root>
    </mxGraphModel>
  </diagram>
</mxfile>
